<?xml version="1.0" encoding="UTF-8" standalone="no"?><!DOCTYPE svg PUBLIC "-//W3C//DTD SVG 1.1//EN" "http://www.w3.org/Graphics/SVG/1.1/DTD/svg11.dtd"><svg width="100%" height="100%" viewBox="0 0 2500 521" version="1.1" xmlns="http://www.w3.org/2000/svg" xmlns:xlink="http://www.w3.org/1999/xlink" xml:space="preserve" xmlns:serif="http://www.serif.com/" style="fill-rule:evenodd;clip-rule:evenodd;stroke-linecap:round;stroke-linejoin:round;stroke-miterlimit:2;"><g><path d="M206.005,321.728l354.283,0l-17.36,82.269l-495.996,-0l60.937,-287.94l495.996,0l-17.36,82.269l-354.283,-0l-26.217,123.402Z" style="fill-rule:nonzero;"/><path d="M578.357,403.997l17.36,-82.269l354.282,0l4.252,-20.567l-354.283,0l17.714,-82.268l354.283,-0l4.251,-20.567l-354.283,-0l17.36,-82.269l495.996,0l-60.936,287.94l-495.996,-0Z" style="fill-rule:nonzero;"/><path d="M1295.07,198.326l-43.577,205.671l-141.713,-0l60.937,-287.94l495.996,0l-39.326,185.104l-118.33,0l155.53,102.836l-200.524,-0l-155.53,-102.836l17.714,-82.268l177.141,-0l4.252,-20.567l-212.57,-0Z" style="fill-rule:nonzero;"/></g><g><g><g><path id="LINE" d="M1772.59,116.9l-26.855,48.075l27.704,47.507l54.559,-0.567l26.854,-48.075l-27.704,-47.507l-54.558,0.567" style="fill:#090404;stroke:#000;stroke-width:2.95px;"/><path id="LINE1" serif:id="LINE" d="M2200.39,160.246l-20.316,-34.838l-40.01,0.416l-19.693,35.255l20.316,34.838l40.01,-0.416l19.693,-35.255" style="fill:#090404;stroke:#000;stroke-width:2.95px;"/><path id="LINE2" serif:id="LINE" d="M2356.54,129.945l-32.735,0.34l-16.112,28.845l16.622,28.505l32.735,-0.341l16.113,-28.845l-16.623,-28.504" style="fill:#090404;stroke:#000;stroke-width:2.95px;"/><path id="LINE3" serif:id="LINE" d="M1933.06,163.027l24.01,41.173l47.284,-0.492l23.274,-41.665l-24.01,-41.173l-47.284,0.492l-23.274,41.665" style="fill:#090404;stroke:#000;stroke-width:2.95px;"/></g></g></g><g><g><g><path id="LINE4" serif:id="LINE" d="M1749.94,309.194l-26.854,48.075l27.704,47.507l54.558,-0.567l26.855,-48.075l-27.704,-47.507l-54.559,0.567" style="fill:#090404;stroke:#000;stroke-width:2.95px;"/><path id="LINE5" serif:id="LINE" d="M2177.74,352.54l-20.316,-34.839l-40.01,0.416l-19.693,35.255l20.317,34.839l40.009,-0.416l19.693,-35.255" style="fill:#090404;stroke:#000;stroke-width:2.95px;"/><path id="LINE6" serif:id="LINE" d="M2333.89,322.239l-32.735,0.34l-16.113,28.845l16.622,28.504l32.736,-0.34l16.112,-28.845l-16.622,-28.504" style="fill:#090404;stroke:#000;stroke-width:2.95px;"/><path id="LINE7" serif:id="LINE" d="M1910.4,355.321l24.011,41.173l47.284,-0.492l23.274,-41.665l-24.011,-41.173l-47.284,0.492l-23.274,41.665" style="fill:#090404;stroke:#000;stroke-width:2.95px;"/></g></g></g><g><g><g><path id="LINE8" serif:id="LINE" d="M1852.5,213.041l-26.854,48.075l27.704,47.507l54.559,-0.567l26.854,-48.075l-27.704,-47.507l-54.559,0.567" style="fill:#090404;stroke:#000;stroke-width:2.95px;"/><path id="LINE9" serif:id="LINE" d="M2280.3,256.387l-20.317,-34.838l-40.009,0.416l-19.693,35.255l20.316,34.838l40.01,-0.416l19.693,-35.255" style="fill:#090404;stroke:#000;stroke-width:2.95px;"/><path id="LINE10" serif:id="LINE" d="M2436.45,226.086l-32.735,0.34l-16.113,28.845l16.623,28.505l32.735,-0.341l16.113,-28.845l-16.623,-28.504" style="fill:#090404;stroke:#000;stroke-width:2.95px;"/><path id="LINE11" serif:id="LINE" d="M2012.96,259.168l24.01,41.173l47.284,-0.492l23.274,-41.665l-24.01,-41.173l-47.284,0.492l-23.274,41.665" style="fill:#090404;stroke:#000;stroke-width:2.95px;"/></g></g></g></svg>