<?xml version="1.0" encoding="UTF-8" standalone="no"?><!DOCTYPE svg PUBLIC "-//W3C//DTD SVG 1.1//EN" "http://www.w3.org/Graphics/SVG/1.1/DTD/svg11.dtd"><svg width="100%" height="100%" viewBox="0 0 3200 4267" version="1.1" xmlns="http://www.w3.org/2000/svg" xmlns:xlink="http://www.w3.org/1999/xlink" xml:space="preserve" xmlns:serif="http://www.serif.com/" style="fill-rule:evenodd;clip-rule:evenodd;stroke-linejoin:round;stroke-miterlimit:2;"><g id="g857"><path d="M2205.91,1831.82c-0,0.749 -510.075,822.418 -510.075,822.418l-1022.12,-0.079c-0,0 -509.433,-821.388 -509.436,-822.368l305.431,0.278c0,0 355.162,571.959 356.88,574.01c2.627,3.135 279.281,3.277 279.281,0.144c-0,-2.502 -355.229,-574.157 -355.229,-574.157l307.318,-0.354c-0,1.027 318.484,514.22 318.484,514.22l204.17,-0c-0,-0 36.945,-61.107 36.945,-62.133c0,-1.026 -277.883,-449.343 -277.883,-451.833l266.594,-0.175c-0,-0 146.219,234.34 146.963,234.33c0.743,-0.011 146.042,-233.627 146.042,-234.618l306.63,0.317Z" style="fill:#453c3c;"/><path d="M164.279,1831.79c-0.003,-0.98 509.436,-822.431 509.436,-822.431l1022.97,0.874c0,-0 509.218,820.851 509.218,821.586l-306.63,-0.317c0,-0.91 -145.518,-233.777 -146.53,-233.473c-1.011,0.303 -146.475,233.761 -146.475,233.761l-266.594,0.175c-0,-2.448 278.472,-452.483 278.472,-452.483c0,0 -36.155,-59.323 -37.892,-60.47c-1.091,-0.72 -202.194,-0.72 -203.295,0c-1.101,0.72 -319.001,512.417 -319.001,512.699l-307.318,0.354c0,0 354.164,-571.414 354.703,-573.33c0.966,-3.437 -278.003,-2.57 -278.003,-2.57l-357.632,575.903l-305.431,-0.278Z" style="fill:#6a6a6a;"/><path d="M2328.71,1833.09c4.142,-5.519 -465.847,-759.694 -465.847,-760.288c-0,-0.595 305.739,-1.081 305.739,-1.081c0,-0 470.417,761.407 470.417,762.715l-310.309,-1.346Z" style="fill:#6a6a6a;"/><path d="M2639.02,1834.43c0,1.31 -470.485,757.387 -470.485,757.387c0,0 -305.671,-0.429 -305.671,-1.011c-0,-0.582 464.397,-755.789 465.847,-757.722l310.309,1.346Z" style="fill:#453c3c;"/><path d="M3035.72,1831.78c0,0.884 -433.794,699.499 -433.794,699.499c-0,0 -267.653,-0.685 -267.302,-1.524c0.531,-1.267 433.475,-698.369 433.475,-698.369l267.621,0.394Z" style="fill:#453c3c;"/><path d="M2768.1,1831.38c-0,0 -433.794,-697.94 -433.794,-698.341c-0,-0.401 267.95,-0.729 267.95,-0.729c0,-0 433.465,698.615 433.465,699.464l-267.621,-0.394Z" style="fill:#6a6a6a;"/><path d="M213.17,2857.45l137.378,0l-6.731,44.458l-192.329,0l23.629,-155.604l192.329,0l-6.732,44.459l-137.378,-0l-10.166,66.687Z" style="fill-rule:nonzero;"/><path d="M429.403,2790.77l-10.166,66.687l82.427,0l10.166,-66.687l-82.427,-0Zm-48.22,-44.459l192.33,0l-23.629,155.604l-192.329,0l23.628,-155.604Z" style="fill-rule:nonzero;"/><path d="M630.662,2822.22l-12.09,79.691l-54.951,0l23.629,-155.604l38.878,0l86.411,79.692l12.089,-79.692l54.951,0l-23.629,155.604l-38.878,0l-86.41,-79.691Z" style="fill-rule:nonzero;"/><path d="M831.371,2857.45l137.378,0l-6.732,44.458l-192.329,0l23.629,-155.604l192.329,0l-6.731,44.459l-137.378,-0l-10.166,66.687Z" style="fill-rule:nonzero;"/><path d="M1191.71,2746.31l-6.732,44.459l-137.377,-0l-1.649,11.114l137.378,0l-6.869,44.459l-137.378,-0l-1.648,11.114l137.377,0l-6.731,44.458l-192.329,0l23.629,-155.604l192.329,0Z" style="fill-rule:nonzero;"/><path d="M1205.45,2746.31l192.329,0l-15.249,100.032l-137.378,-0l-8.38,55.572l-54.951,0l23.629,-155.604Zm48.219,44.459l-1.648,11.114l82.427,0l1.648,-11.114l-82.427,-0Z" style="fill-rule:nonzero;"/><path d="M1528.43,2790.77l-16.897,111.145l-54.952,0l16.898,-111.145l-68.689,-0l6.732,-44.459l192.329,0l-6.732,44.459l-68.689,-0Z" style="fill-rule:nonzero;"/><path d="M1663.74,2901.91l6.732,-44.458l137.378,0l1.648,-11.114l-137.378,-0l6.869,-44.459l137.378,0l1.649,-11.114l-137.378,-0l6.731,-44.459l192.329,0l-23.629,155.604l-192.329,0Z" style="fill-rule:nonzero;"/><path d="M2011.45,2790.77l-16.898,111.145l-54.951,0l23.629,-155.604l192.329,0l-15.249,100.032l-45.884,-0l60.309,55.572l-77.756,0l-60.309,-55.572l6.869,-44.459l68.689,0l1.648,-11.114l-82.426,-0Z" style="fill-rule:nonzero;"/><path d="M2217.51,2790.77l-1.649,11.114l82.427,0l1.648,-11.114l-82.426,-0Zm-48.22,-44.459l192.329,0l-23.629,155.604l-54.951,0l8.38,-55.572l-82.427,-0l-8.38,55.572l-54.951,0l23.629,-155.604Z" style="fill-rule:nonzero;"/><path d="M2413.41,2857.45l137.378,0l-6.731,44.458l-192.329,0l23.629,-155.604l192.329,0l-6.732,44.459l-137.378,-0l-10.166,66.687Z" style="fill-rule:nonzero;"/><path d="M2612.75,2901.91l-54.951,0l23.629,-155.604l54.951,0l-23.629,155.604Z" style="fill-rule:nonzero;"/><path d="M2693.53,2822.22l-12.089,79.691l-54.952,0l23.629,-155.604l38.878,0l86.411,79.692l12.089,-79.692l54.951,0l-23.628,155.604l-38.878,0l-86.411,-79.691Z" style="fill-rule:nonzero;"/><path d="M3048.51,2746.31l-6.731,44.459l-137.378,-0l-10.166,66.687l82.427,0l1.648,-11.114l-68.689,-0l6.869,-44.459l123.64,0l-15.249,100.031l-192.329,0l23.629,-155.604l192.329,0Z" style="fill-rule:nonzero;"/></g></svg>