<?xml version="1.0" encoding="UTF-8" standalone="no"?><!DOCTYPE svg PUBLIC "-//W3C//DTD SVG 1.1//EN" "http://www.w3.org/Graphics/SVG/1.1/DTD/svg11.dtd"><svg width="100%" height="100%" viewBox="0 0 3200 4267" version="1.1" xmlns="http://www.w3.org/2000/svg" xmlns:xlink="http://www.w3.org/1999/xlink" xml:space="preserve" xmlns:serif="http://www.serif.com/" style="fill-rule:evenodd;clip-rule:evenodd;stroke-linejoin:round;stroke-miterlimit:2;"><g id="g857"><path id="path847" d="M673.715,2654.16c-0,0 -509.433,-821.388 -509.436,-822.368c-0.003,-0.98 509.436,-822.431 509.436,-822.431l1022.97,0.874c0,-0 509.218,820.851 509.218,821.586c-0,0.749 -510.075,822.418 -510.075,822.418l-1022.12,-0.079Zm432.156,-247.936c-0,-2.502 -355.229,-574.157 -355.229,-574.157c0,0 354.164,-571.414 354.703,-573.33c0.966,-3.437 -278.003,-2.57 -278.003,-2.57l-357.632,575.903c0,0 355.162,571.959 356.88,574.01c2.627,3.135 279.281,3.277 279.281,0.144Zm474.743,-60.291c-0,-0 36.945,-61.107 36.945,-62.133c0,-1.026 -277.883,-449.343 -277.883,-451.833c-0,-2.448 278.472,-452.483 278.472,-452.483c0,0 -36.155,-59.323 -37.892,-60.47c-1.091,-0.72 -202.194,-0.72 -203.295,0c-1.101,0.72 -319.001,512.417 -319.001,512.699c-0,1.027 318.484,514.22 318.484,514.22l204.17,-0Zm172.619,-279.811c0.743,-0.011 146.042,-233.627 146.042,-234.618c0,-0.91 -145.518,-233.777 -146.53,-233.473c-1.011,0.303 -146.475,233.761 -146.475,233.761c-0,-0 146.219,234.34 146.963,234.33Zm109.63,524.685c-0,-0.582 464.397,-755.787 465.847,-757.72c4.142,-5.519 -465.847,-759.694 -465.847,-760.288c-0,-0.595 305.739,-1.081 305.739,-1.081c0,-0 470.417,761.407 470.417,762.715c0,1.31 -470.485,757.387 -470.485,757.387c0,0 -305.671,-0.427 -305.671,-1.01l-0,-0.003Zm471.762,-61.058c0.531,-1.267 433.475,-698.369 433.475,-698.369c-0,0 -433.794,-697.94 -433.794,-698.341c-0,-0.401 267.95,-0.729 267.95,-0.729c0,-0 433.465,698.615 433.465,699.464c0,0.884 -433.794,699.499 -433.794,699.499c-0,0 -267.653,-0.685 -267.302,-1.524Z" style="fill:none;fill-rule:nonzero;stroke:#000;stroke-width:8.33px;"/></g></svg>